<?xml version="1.0" standalone="no"?><!DOCTYPE svg PUBLIC "-//W3C//DTD SVG 1.1//EN" "http://www.w3.org/Graphics/SVG/1.1/DTD/svg11.dtd"><svg t="1506390837730" class="icon" style="" viewBox="0 0 1024 1024" version="1.1" xmlns="http://www.w3.org/2000/svg" p-id="2080" xmlns:xlink="http://www.w3.org/1999/xlink" width="200" height="200"><defs><style type="text/css">html, * { user-select: text !important; }
</style></defs><path d="M512 512m-512 0a512 512 0 1 0 1024 0 512 512 0 1 0-1024 0Z" fill="#F43531" p-id="2081"></path><path d="M607.776 306.24h0.192l-1.44 12.224c-0.096 0.608-0.096 1.216-0.224 1.792l-30.336 255.68h-2.944c1.824 5.056 2.976 10.4 2.976 16.064a48 48 0 0 1-96 0c0-5.664 1.152-11.008 2.944-16.064H480l-30.368-255.776-0.064-0.544-1.6-13.376h0.256c-0.032-0.768-0.224-1.504-0.224-2.272a80 80 0 0 1 160 0c0 0.768-0.224 1.504-0.224 2.272zM528 704a48 48 0 1 1 0 96 48 48 0 0 1 0-96z" fill="#FFFFFF" p-id="2082"></path></svg>